<?xml version="1.0" encoding="utf-8"?>
<!-- Generator: Adobe Illustrator 24.1.2, SVG Export Plug-In . SVG Version: 6.00 Build 0)  -->
<svg version="1.1" xmlns="http://www.w3.org/2000/svg" xmlns:xlink="http://www.w3.org/1999/xlink" x="0px" y="0px"
	 viewBox="0 0 512 512" style="enable-background:new 0 0 512 512;" xml:space="preserve">
<style type="text/css">
	.st0{opacity:0.5;}
	.st1{fill:#181717;}
	.st2{fill:#1B1C1C;}
	.st3{fill:#BB43EA;}
</style>
<g id="Layer_1">
</g>
<g id="Layer_2">
	<rect width="512" height="512"/>
	<g>
		<g class="st0">
			<path class="st1" d="M127.35,99.33c-79.5,65.21-96.59,178.43-43.11,261.96c6.69,10.44,21.13,12.53,30.84,4.57l0,0
				c8.3-6.8,10.16-18.64,4.46-27.57c-42.1-65.99-28.56-155.32,34.2-206.79s153.01-47.27,209.48,6.92
				c7.65,7.34,19.62,7.82,27.91,1.02l0,0c9.71-7.96,10.48-22.54,1.55-31.14C321.24,39.51,206.85,34.12,127.35,99.33z"/>
		</g>
		<g>
			<path class="st2" d="M232.81,455.2C128.63,442.72,51.91,353.7,52.24,251.21c0.04-12.81,11.34-22.68,24.06-21.15l0,0
				c10.87,1.3,18.96,10.57,18.94,21.51c-0.13,80.87,60.45,151.08,142.68,160.93s157.68-44.07,176.65-122.68
				c2.57-10.64,12.61-17.73,23.48-16.43h0c12.72,1.52,21.37,13.78,18.39,26.24C432.57,399.29,337,467.68,232.81,455.2z"/>
		</g>
		<g>
			<path class="st3" d="M278.16,78.46c-1.23,10.77,5.73,20.86,16.29,23.34c0.9,0.21,1.8,0.43,2.71,0.66
				c80.3,20.32,131.37,97.71,120.87,177.9l-0.01,0.04c-1.4,10.84,5.43,21.04,16.03,23.72c12.42,3.14,24.89-5.19,26.57-17.89
				c13.47-101.6-51.2-199.73-152.91-225.47c-1.04-0.26-2.08-0.52-3.12-0.76C292,57.03,279.63,65.62,278.16,78.46L278.16,78.46z"/>
		</g>
		<circle class="st3" cx="88.19" cy="195.91" r="13.4"/>
		<circle class="st3" cx="110.17" cy="153.32" r="13.4"/>
		<circle class="st3" cx="144.98" cy="116.32" r="13.4"/>
		<circle class="st3" cx="187.87" cy="90.51" r="13.4"/>
		<circle class="st3" cx="238.36" cy="77.65" r="13.4"/>
	</g>
</g>
</svg>
