<?xml version="1.0" encoding="utf-8"?>
<!-- Generator: Adobe Illustrator 24.1.2, SVG Export Plug-In . SVG Version: 6.00 Build 0)  -->
<svg version="1.1" id="Layer_1" xmlns="http://www.w3.org/2000/svg" xmlns:xlink="http://www.w3.org/1999/xlink" x="0px" y="0px"
	 viewBox="0 0 512 512" style="enable-background:new 0 0 512 512;" xml:space="preserve">
<style type="text/css">
	.st0{opacity:0.5;}
	.st1{fill:#181717;}
	.st2{fill:#1B1C1C;}
	.st3{fill:#BB43EA;}
</style>
<g class="st0">
	<path class="st1" d="M128.25,100.76C47.12,167.3,30.31,283.62,85.7,369.85c6.92,10.78,21.76,13.02,31.66,4.89l0,0
		c8.47-6.94,10.3-19.1,4.4-28.32c-43.6-68.11-30.28-159.88,33.76-212.41s156.64-47.64,214.91,8.45c7.89,7.59,20.17,8.17,28.64,1.23
		l0,0c9.9-8.12,10.61-23.11,1.39-32.01C326.74,40.49,209.38,34.22,128.25,100.76z"/>
</g>
<g>
	<path class="st2" d="M232.81,455.2C128.63,442.72,51.91,353.7,52.24,251.21c0.04-12.81,11.34-22.68,24.06-21.15l0,0
		c10.87,1.3,18.96,10.57,18.94,21.51c-0.13,80.87,60.45,151.08,142.68,160.93s157.68-44.07,176.65-122.68
		c2.57-10.64,12.61-17.73,23.48-16.43h0c12.72,1.52,21.37,13.78,18.39,26.24C432.57,399.29,337,467.68,232.81,455.2z"/>
</g>
<g>
	<path class="st3" d="M278.16,78.46c-1.23,10.77,5.73,20.86,16.29,23.34c0.9,0.21,1.8,0.43,2.71,0.66
		c80.3,20.32,131.37,97.71,120.87,177.9l-0.01,0.04c-1.4,10.84,5.43,21.04,16.03,23.72c12.42,3.14,24.89-5.19,26.57-17.89
		c13.47-101.6-51.2-199.73-152.91-225.47c-1.04-0.26-2.08-0.52-3.12-0.76C292,57.03,279.63,65.62,278.16,78.46L278.16,78.46z"/>
</g>
<circle class="st3" cx="88.19" cy="195.91" r="13.4"/>
<circle class="st3" cx="110.17" cy="153.32" r="13.4"/>
<circle class="st3" cx="144.98" cy="116.32" r="13.4"/>
<circle class="st3" cx="187.87" cy="90.51" r="13.4"/>
<circle class="st3" cx="238.36" cy="77.65" r="13.4"/>
</svg>
